<?xml version="1.0" encoding="utf-8"?>
<!-- Generator: Adobe Illustrator 19.1.0, SVG Export Plug-In . SVG Version: 6.00 Build 0)  -->
<!DOCTYPE svg PUBLIC "-//W3C//DTD SVG 1.1//EN" "http://www.w3.org/Graphics/SVG/1.1/DTD/svg11.dtd">
<svg version="1.1" id="Layer_1" xmlns="http://www.w3.org/2000/svg" xmlns:xlink="http://www.w3.org/1999/xlink" x="0px" y="0px"
	 width="95px" height="100.6px" viewBox="-252 100.4 95 100.6" style="enable-background:new -252 100.4 95 100.6;"
	 xml:space="preserve">
<style type="text/css">
	.st0{fill:none;stroke:#FFFFFF;stroke-miterlimit:10;}
	.st1{fill:#FFFFFF;}
</style>
<circle class="st0" cx="-204.3" cy="150.1" r="43.9"/>
<g>
	<path class="st1" d="M-211,131.6c7.7,0.3,7.7,6.9,7.7,6.9c1.1,6.7-4.6,7.7-4.6,7.7c6.5,1.1,5.4,8,5.4,8c-0.2,9.1-8.3,9.2-8.6,9.2
		c0,0,0,0,0,0H-228v-31.5L-211,131.6 M-221.4,144.6h9.5c0,0,4.9-4-0.3-6.9h-9.2V144.6 M-220.7,156.9h9.5c0,0,4.9-4.4-0.3-7.6h-9.2
		V156.9 M-182.4,133.4v4.3h-13.5v-4.3H-182.4 M-189.1,139.7c1.6,0,3.2,0.3,4.8,1c7.3,3.2,6.1,12.4,6.1,12.4h-16.3
		c0.5,5.4,4.6,5.5,4.6,5.5c0.5,0,0.9,0.1,1.3,0.1c4.5,0,4.7-3,4.7-3h5.4c-0.5,7-7,7.7-9.6,7.7c-0.6,0-1,0-1,0c-0.3,0-0.6,0-0.9,0
		c-5.1,0-7.9-2.5-9.3-5c-1.6-2.8-1.8-6.2-1-9.4c1-4,3.2-6.3,5.3-7.6C-193.2,140.3-191.1,139.7-189.1,139.7 M-194.5,148.8h10.6
		c0,0-1.9-4-5.1-4C-190.5,144.8-192.4,145.8-194.5,148.8 M-211,130.6L-211,130.6l-17,0.3l-1,0v1v31.5v1h1h16.9
		c0.4,0,8.9-0.1,9.6-9.3c0.2,1.4,0.7,2.7,1.4,3.8c1.4,2.5,4.3,5.5,10.2,5.5c0.3,0,0.6,0,0.9,0c0.2,0,0.5,0,1.1,0
		c2.3,0,10-0.6,10.6-8.7l0.1-1.1h-1.1h-5.4h-0.9l-0.1,0.9c0,0.2-0.4,2.1-3.8,2.1c-0.4,0-0.7,0-1.1-0.1l0,0l0,0
		c-0.3,0-2.7-0.2-3.5-3.5h15.1h0.9l0.1-0.9c0-0.1,1.2-10-6.7-13.4c-1.7-0.7-3.4-1.1-5.2-1.1c-2.3,0-4.6,0.6-6.5,1.8
		c-2,1.2-4.6,3.7-5.7,8.2c-0.2,0.7-0.3,1.4-0.4,2.1c-0.4-1.8-1.4-3.7-3.5-4.8c1.7-1.1,3.5-3.4,2.8-7.7
		C-202.3,137.5-202.9,130.9-211,130.6L-211,130.6L-211,130.6z M-220.4,138.7h7.9c1,0.6,1.6,1.3,1.7,2c0.1,1.1-0.9,2.3-1.5,2.9h-8.1
		V138.7L-220.4,138.7z M-192.4,147.8c1.2-1.3,2.4-2,3.5-2c1.4,0,2.5,1.1,3.2,2H-192.4L-192.4,147.8z M-219.7,150.3h7.9
		c1,0.7,1.6,1.5,1.7,2.3c0.1,1.3-0.9,2.6-1.5,3.3h-8.1V150.3L-219.7,150.3z M-181.4,132.4h-1h-13.5h-1v1v4.3v1h1h13.5h1v-1v-4.3
		V132.4L-181.4,132.4z"/>
</g>
</svg>
