<svg xmlns="http://www.w3.org/2000/svg" width="95" height="100.6" viewBox="0 0 95 100.6"><style type="text/css">.st0{fill:none;stroke:#FFFFFF;stroke-miterlimit:10;} .st1{fill:none;stroke:#FFFFFF;stroke-linejoin:round;stroke-miterlimit:10;}</style><circle class="st0" cx="47.7" cy="49.7" r="43.9"/><path class="st1" d="M24 31.5v31.5h16.9s8.4.1 8.6-9.2c0 0 1.1-6.9-5.4-8 0 0 5.7-1 4.6-7.7 0 0 0-6.6-7.7-6.9l-17 .3zM57.5 48.4h10.6s-4.3-9.1-10.6 0zM57.5 52.7h16.3s1.2-9.2-6.1-12.4c-3.5-1.5-7.5-1.3-10.7.7-2.1 1.3-4.3 3.6-5.3 7.6-.8 3.2-.6 6.6 1 9.4 1.5 2.7 4.5 5.3 10.2 5 0 0 10 1.1 10.6-7.7h-5.4s-.3 3.5-6 2.9c0 0-4.1-.1-4.6-5.5zM30.6 37.3v6.9h9.5s4.9-4-.3-6.9h-9.2zM31.3 48.9v7.6h9.5s4.9-4.4-.3-7.6h-9.2zM56.1 33h13.5v4.3h-13.5z"/></svg>