<?xml version="1.0" encoding="utf-8"?>
<!-- Generator: Adobe Illustrator 19.1.0, SVG Export Plug-In . SVG Version: 6.00 Build 0)  -->
<!DOCTYPE svg PUBLIC "-//W3C//DTD SVG 1.1//EN" "http://www.w3.org/Graphics/SVG/1.1/DTD/svg11.dtd">
<svg version="1.1" id="Layer_1" xmlns="http://www.w3.org/2000/svg" xmlns:xlink="http://www.w3.org/1999/xlink" x="0px" y="0px"
	 width="95px" height="100.6px" viewBox="-252 100.4 95 100.6" style="enable-background:new -252 100.4 95 100.6;"
	 xml:space="preserve">
<style type="text/css">
	.st0{fill:none;stroke:#FFFFFF;stroke-miterlimit:10;}
	.st1{fill:#FFFFFF;}
	.st2{fill:#A5E2CB;stroke:#FFFFFF;stroke-miterlimit:10;}
</style>
<circle class="st0" cx="-456.3" cy="250.5" r="43.9"/>
<g>
	<path class="st1" d="M-463,232c7.7,0.3,7.7,6.9,7.7,6.9c1.1,6.7-4.6,7.7-4.6,7.7c6.5,1.1,5.4,8,5.4,8c-0.2,9.1-8.3,9.2-8.6,9.2l0,0
		H-480v-31.5L-463,232 M-473.4,245h9.5c0,0,4.9-4-0.3-6.9h-9.2V245 M-472.7,257.3h9.5c0,0,4.9-4.4-0.3-7.6h-9.2V257.3 M-434.4,233.8
		v4.3h-13.5v-4.3H-434.4 M-441.1,240.1c1.6,0,3.2,0.3,4.8,1c7.3,3.2,6.1,12.4,6.1,12.4h-16.3c0.5,5.4,4.6,5.5,4.6,5.5
		c0.5,0,0.9,0.1,1.3,0.1c4.5,0,4.7-3,4.7-3h5.4c-0.5,7-7,7.7-9.6,7.7c-0.6,0-1,0-1,0c-0.3,0-0.6,0-0.9,0c-5.1,0-7.9-2.5-9.3-5
		c-1.6-2.8-1.8-6.2-1-9.4c1-4,3.2-6.3,5.3-7.6C-445.2,240.7-443.1,240.1-441.1,240.1 M-446.5,249.2h10.6c0,0-1.9-4-5.1-4
		C-442.5,245.2-444.4,246.2-446.5,249.2 M-463,231L-463,231l-17,0.3h-1v1v31.5v1h1h16.9c0.4,0,8.9-0.1,9.6-9.3
		c0.2,1.4,0.7,2.7,1.4,3.8c1.4,2.5,4.3,5.5,10.2,5.5c0.3,0,0.6,0,0.9,0c0.2,0,0.5,0,1.1,0c2.3,0,10-0.6,10.6-8.7l0.1-1.1h-1.1h-5.4
		h-0.9l-0.1,0.9c0,0.2-0.4,2.1-3.8,2.1c-0.4,0-0.7,0-1.1-0.1l0,0l0,0c-0.3,0-2.7-0.2-3.5-3.5h15.1h0.9l0.1-0.9
		c0-0.1,1.2-10-6.7-13.4c-1.7-0.7-3.4-1.1-5.2-1.1c-2.3,0-4.6,0.6-6.5,1.8c-2,1.2-4.6,3.7-5.7,8.2c-0.2,0.7-0.3,1.4-0.4,2.1
		c-0.4-1.8-1.4-3.7-3.5-4.8c1.7-1.1,3.5-3.4,2.8-7.7C-454.3,237.9-454.9,231.3-463,231L-463,231L-463,231z M-472.4,239.1h7.9
		c1,0.6,1.6,1.3,1.7,2c0.1,1.1-0.9,2.3-1.5,2.9h-8.1L-472.4,239.1L-472.4,239.1z M-444.4,248.2c1.2-1.3,2.4-2,3.5-2
		c1.4,0,2.5,1.1,3.2,2H-444.4L-444.4,248.2z M-471.7,250.7h7.9c1,0.7,1.6,1.5,1.7,2.3c0.1,1.3-0.9,2.6-1.5,3.3h-8.1V250.7
		L-471.7,250.7z M-433.4,232.8h-1h-13.5h-1v1v4.3v1h1h13.5h1v-1v-4.3V232.8L-433.4,232.8z"/>
</g>
<rect x="-118.3" y="116.8" class="st2" width="54.3" height="35.5"/>
</svg>
