<svg xmlns="http://www.w3.org/2000/svg" width="95" height="100.6" viewBox="-252 100.4 95 100.6" enable-background="new -252 100.4 95 100.6"><style type="text/css">.st0{fill:none;stroke:#A5E2CB;stroke-width:3;stroke-miterlimit:10;} .st1{fill:none;stroke:#A5E2CB;stroke-miterlimit:10;} .st2{fill:#A5E2CB;}</style><circle class="st0" cx="-204.3" cy="150.1" r="43.9"/><path class="st1" d="M-207.5 147.4c.1-.1.2-.1.2-.1.4-.2.8-.4 1.1-.7 1.4-.9 2.2-2.2 2.6-3.8.4-1.7.4-3.4 0-5.1-.4-1.6-1.2-3-2.5-4.2-1-.9-2.1-1.5-3.4-1.9-1.5-.5-3.1-.7-4.6-.7h-17.1v35.4h15.7c.9 0 1.7 0 2.6-.1 1-.1 2-.2 3-.5 1.9-.5 3.6-1.4 5-2.9 1.6-1.7 2.5-3.8 2.7-6.1.1-1.3.1-2.5-.2-3.8-.4-1.5-1-2.8-2.2-3.9-.8-.8-1.7-1.3-2.7-1.7 0 .2-.1.2-.2.1zm33.3 7.1v-2.7c0-.9-.1-1.9-.3-2.8-.3-1.7-.9-3.2-1.8-4.6-1.4-2.1-3.2-3.6-5.6-4.4-1.5-.5-3.1-.7-4.7-.7-1.4 0-2.7.1-4 .5-3.4 1-6 3.1-7.4 6.4-.7 1.6-1 3.4-1.2 5.1-.1 1.5-.1 2.9.1 4.4.1 1.1.4 2.2.8 3.3.6 1.4 1.3 2.7 2.5 3.7 2.3 2 4.9 3.1 8 3.4 1.5.1 3 .1 4.4-.2 2.7-.5 5.1-1.7 6.9-3.9.7-.8 1.2-1.6 1.6-2.6.2-.5.4-1 .4-1.6h-6.8c-.1.2-.3.4-.4.7-.7 1.1-1.7 1.7-2.9 2-1.4.3-2.8.3-4.1-.2-1.6-.5-2.7-1.6-3.4-3.1-.3-.7-.4-1.5-.5-2.3v-.5c6.1.1 12.3.1 18.4.1zm-5.5-18.5v-3.5h-14.2v3.5h14.2z"/><path class="st2" d="M-207.5 147.4c.1 0 .2.1.2.1 1 .4 2 1 2.7 1.7 1.1 1.1 1.8 2.4 2.2 3.9.3 1.2.3 2.5.2 3.8-.2 2.3-1.1 4.4-2.7 6.1-1.3 1.5-3 2.4-5 2.9-1 .2-2 .4-3 .5-.9.1-1.7.1-2.6.1h-15.7v-35.4h17.1c1.6 0 3.1.2 4.6.7 1.3.4 2.4 1 3.4 1.9 1.3 1.1 2.1 2.5 2.5 4.2.4 1.7.4 3.4 0 5.1-.4 1.6-1.3 2.9-2.6 3.8-.4.2-.8.5-1.1.7 0-.2-.1-.1-.2-.1zm-15.4 12.9h7.9c.8 0 1.6-.1 2.4-.3 1.3-.4 2.3-1.2 2.8-2.5.4-1 .4-2.1.3-3.2-.2-1.3-.8-2.2-2-2.8l-.8-.3c-.8-.3-1.7-.4-2.6-.4h-7.9c-.1 3.2-.1 6.3-.1 9.5zm0-23.1v7.8h7.2c.5 0 1.1 0 1.6-.1.8-.1 1.6-.3 2.3-.7.6-.4 1.1-.9 1.3-1.6.3-1 .3-2 0-3-.3-.8-.8-1.4-1.6-1.8l-.6-.2c-1.1-.3-2.2-.4-3.3-.4"/><path class="st2" d="M-174.2 154.5h-18.5v.5c.1.8.2 1.6.5 2.3.6 1.6 1.8 2.6 3.4 3.1 1.4.5 2.7.5 4.1.2 1.2-.3 2.2-1 2.9-2 .1-.2.3-.4.4-.7h6.8c-.1.5-.2 1.1-.4 1.6-.4 1-1 1.8-1.6 2.6-1.8 2.1-4.1 3.4-6.9 3.9-1.5.3-2.9.3-4.4.2-3-.3-5.7-1.4-8-3.4-1.2-1-1.9-2.3-2.5-3.7-.4-1.1-.7-2.2-.8-3.3-.2-1.5-.2-2.9-.1-4.4.1-1.8.4-3.5 1.2-5.1 1.5-3.3 4-5.4 7.4-6.4 1.3-.4 2.7-.5 4-.5 1.6 0 3.2.2 4.7.7 2.4.8 4.3 2.3 5.6 4.4.9 1.4 1.5 3 1.8 4.6.2.9.2 1.9.3 2.8v2.4c.2 0 .1.1.1.2zm-18.3-4.4c.4.1 11.3 0 11.4 0 0-.3-.1-.6-.1-1-.4-2.1-1.7-3.5-3.7-4.1-1.2-.4-2.3-.3-3.5-.1-1.2.3-2.1.9-2.8 1.9-.5.7-.9 1.5-1.1 2.4l-.2.9zm12.8-14.1h-14.2v-3.5h14.2c0 .2.1 3.3 0 3.5z"/></svg>