<svg xmlns="http://www.w3.org/2000/svg" width="73.1" height="75.8" viewBox="-252 100.4 73.1 75.8" enable-background="new -252 100.4 73.1 75.8"><style type="text/css">.st0{fill:none;stroke:#A5E2CB;stroke-width:3;stroke-miterlimit:10;} .st1{fill:none;stroke:#A5E2CB;stroke-miterlimit:10;} .st2{fill:#A5E2CB;}</style><circle class="st0" cx="-216.2" cy="138.2" r="32.4"/><path class="st1" d="M-218.5 136.3l.2-.1c.3-.2.6-.3.8-.5 1-.7 1.6-1.6 1.9-2.8.3-1.3.3-2.5 0-3.8-.3-1.2-.9-2.2-1.8-3.1-.7-.6-1.6-1.1-2.5-1.4-1.1-.3-2.3-.5-3.4-.5h-12.6v26.1h11.5c.6 0 1.3 0 1.9-.1l2.2-.3c1.4-.3 2.7-1 3.7-2.1 1.2-1.3 1.8-2.8 2-4.5.1-.9 0-1.9-.2-2.8-.3-1.1-.8-2.1-1.6-2.9-.6-.6-1.3-1-2-1.3 0 .1 0 .1-.1.1zm24.6 5.2v-2c0-.7-.1-1.4-.2-2.1-.2-1.2-.7-2.4-1.3-3.4-1-1.6-2.4-2.7-4.2-3.2-1.1-.4-2.3-.5-3.5-.5-1 0-2 .1-3 .4-2.5.7-4.4 2.3-5.5 4.7-.5 1.2-.8 2.5-.9 3.8-.1 1.1-.1 2.2.1 3.2.1.8.3 1.7.6 2.4.4 1.1 1 2 1.8 2.7 1.7 1.5 3.7 2.3 5.9 2.5 1.1.1 2.2 0 3.3-.2 2-.4 3.7-1.3 5.1-2.9.5-.6.9-1.2 1.2-1.9.1-.4.3-.7.3-1.1h-5l-.3.5c-.5.8-1.2 1.3-2.2 1.5-1 .2-2 .2-3-.1-1.2-.4-2-1.2-2.5-2.3-.2-.5-.3-1.1-.4-1.7v-.4c4.6.1 9.1.1 13.7.1zm-4.1-13.7v-2.6h-10.5v2.6h10.5z"/><path class="st2" d="M-218.5 136.3l.2.1c.8.3 1.4.7 2 1.3.8.8 1.3 1.8 1.6 2.9.2.9.3 1.8.2 2.8-.2 1.7-.8 3.2-2 4.5-1 1.1-2.2 1.8-3.7 2.1-.7.2-1.5.3-2.2.3-.6.1-1.3.1-1.9.1h-11.5v-26.1h12.6c1.2 0 2.3.1 3.4.5.9.3 1.8.7 2.5 1.4.9.8 1.5 1.9 1.8 3.1.3 1.3.3 2.5 0 3.8-.3 1.2-.9 2.1-1.9 2.8-.3.2-.6.3-.8.5-.2-.2-.3-.2-.3-.1zm-11.4 9.4h5.8c.6 0 1.2-.1 1.7-.2 1-.3 1.7-.9 2.1-1.8.3-.8.3-1.5.2-2.3-.1-.9-.6-1.6-1.5-2.1-.2-.1-.4-.2-.6-.2-.6-.2-1.3-.3-1.9-.3h-5.8v6.9zm0-17v5.8h5.3c.4 0 .8 0 1.2-.1.6-.1 1.2-.2 1.7-.5s.8-.7 1-1.2c.2-.7.2-1.5 0-2.2-.2-.6-.6-1.1-1.2-1.3-.1-.1-.3-.1-.5-.1-.8-.2-1.6-.3-2.4-.3"/><path class="st2" d="M-193.9 139.5c0-.7-.1-1.4-.2-2-.2-1.2-.7-2.4-1.3-3.4-1-1.6-2.4-2.7-4.2-3.2-1.1-.4-2.3-.5-3.5-.5-1 0-2 .1-3 .4-2.5.8-4.4 2.3-5.5 4.7-.5 1.2-.8 2.5-.9 3.8-.1 1.1 0 2.2.1 3.2.1.8.3 1.7.6 2.5.4 1 1 2 1.8 2.7 1.7 1.5 3.6 2.3 5.9 2.5 1.1.1 2.2 0 3.3-.2 2-.4 3.7-1.3 5.1-2.9.5-.6.9-1.2 1.2-1.9.1-.4.3-.7.3-1.1h-5l-.3.5c-.5.8-1.2 1.3-2.2 1.5-1 .2-2 .2-3-.1-1.2-.4-2-1.2-2.5-2.3-.2-.5-.3-1.1-.4-1.7v-.4h13.1v.2l.9-.2.2-.4v-1.9l-.5.2zm-13.5-1.3c0-.2.1-.5.2-.7.2-.6.4-1.2.8-1.7.5-.7 1.2-1.2 2.1-1.4.9-.2 1.7-.2 2.6 0 1.5.5 2.4 1.5 2.7 3 .1.2.1.5.1.7-.2.2-8.2.2-8.5.1zM-198 127.8h-10.5v-2.6h10.5v2.6z"/></svg>