<?xml version="1.0" encoding="utf-8"?>
<!-- Generator: Adobe Illustrator 19.1.0, SVG Export Plug-In . SVG Version: 6.00 Build 0)  -->
<!DOCTYPE svg PUBLIC "-//W3C//DTD SVG 1.1//EN" "http://www.w3.org/Graphics/SVG/1.1/DTD/svg11.dtd">
<svg version="1.1" id="Layer_1" xmlns="http://www.w3.org/2000/svg" xmlns:xlink="http://www.w3.org/1999/xlink" x="0px" y="0px"
	 width="95px" height="100.6px" viewBox="0 0 95 100.6" style="enable-background:new 0 0 95 100.6;" xml:space="preserve">
<style type="text/css">
	.st0{fill:none;stroke:#FFFFFF;stroke-miterlimit:10;}
	.st1{fill:none;stroke:#FFFFFF;stroke-linejoin:round;stroke-miterlimit:10;}
</style>
<circle class="st0" cx="47.7" cy="49.7" r="43.9"/>
<path class="st1" d="M24,31.5V63h16.9c0,0,8.4,0.1,8.6-9.2c0,0,1.1-6.9-5.4-8c0,0,5.7-1,4.6-7.7c0,0,0-6.6-7.7-6.9L24,31.5z"/>
<path class="st1" d="M57.5,48.4h10.6C68.1,48.4,63.8,39.3,57.5,48.4z"/>
<path class="st1" d="M57.5,52.7h16.3c0,0,1.2-9.2-6.1-12.4c-3.5-1.5-7.5-1.3-10.7,0.7c-2.1,1.3-4.3,3.6-5.3,7.6
	c-0.8,3.2-0.6,6.6,1,9.4c1.5,2.7,4.5,5.3,10.2,5c0,0,10,1.1,10.6-7.7h-5.4c0,0-0.3,3.5-6,2.9C62.1,58.2,58,58.1,57.5,52.7z"/>
<path class="st1" d="M30.6,37.3v6.9h9.5c0,0,4.9-4-0.3-6.9H30.6z"/>
<path class="st1" d="M31.3,48.9v7.6h9.5c0,0,4.9-4.4-0.3-7.6H31.3z"/>
<rect x="56.1" y="33" class="st1" width="13.5" height="4.3"/>
<g>
</g>
<g>
</g>
<g>
</g>
<g>
</g>
<g>
</g>
<g>
</g>
</svg>
