<?xml version="1.0" encoding="utf-8"?>
<!-- Generator: Adobe Illustrator 19.1.0, SVG Export Plug-In . SVG Version: 6.00 Build 0)  -->
<!DOCTYPE svg PUBLIC "-//W3C//DTD SVG 1.1//EN" "http://www.w3.org/Graphics/SVG/1.1/DTD/svg11.dtd">
<svg version="1.1" id="Layer_1" xmlns="http://www.w3.org/2000/svg" xmlns:xlink="http://www.w3.org/1999/xlink" x="0px" y="0px"
	 width="95px" height="100.6px" viewBox="-252 100.4 95 100.6" style="enable-background:new -252 100.4 95 100.6;"
	 xml:space="preserve">
<style type="text/css">
	.st0{fill:none;stroke:#FFFFFF;stroke-width:2;stroke-miterlimit:10;}
	.st1{fill:#FFFFFF;}
</style>
<circle class="st0" cx="-204.3" cy="150.1" r="43.9"/>
<path class="st1" d="M-228,131.9v31.5h16.9c0,0,8.4,0.1,8.6-9.2c0,0,1.1-6.9-5.4-8c0,0,5.7-1,4.6-7.7c0,0,0-6.6-7.7-6.9
	C-211,131.6-228,131.9-228,131.9z M-194.5,148.8h10.6C-183.9,148.8-188.2,139.7-194.5,148.8z M-194.5,153.1h16.3
	c0,0,1.2-9.2-6.1-12.4c-3.5-1.5-7.5-1.3-10.7,0.7c-2.1,1.3-4.3,3.6-5.3,7.6c-0.8,3.2-0.6,6.6,1,9.4c1.5,2.7,4.5,5.3,10.2,5
	c0,0,10,1.1,10.6-7.7h-5.4c0,0-0.3,3.5-6,2.9C-189.9,158.6-194,158.5-194.5,153.1z M-221.4,137.7v6.9h9.5c0,0,4.9-4-0.3-6.9
	C-212.2,137.7-221.4,137.7-221.4,137.7z M-220.7,149.3v7.6h9.5c0,0,4.9-4.4-0.3-7.6H-220.7z M-195.9,133.4h13.5v4.3h-13.5V133.4z"/>
</svg>
