<svg xmlns="http://www.w3.org/2000/svg" width="95" height="100.6" viewBox="0 0 95 100.6"><style type="text/css">.st0{fill:none;stroke:#AADAC9;stroke-width:2;stroke-miterlimit:10;} .st1{fill:#A9DAC8;}</style><circle class="st0" cx="47.7" cy="49.7" r="43.9"/><circle class="st1" cx="30.1" cy="28.7" r="5.7"/><path class="st1" d="M51.9 71.4h-10.7v-32.3h9.8c.3 0 .8.6.9 1 .1.9 0 1.9 0 3.3 2.5-3.4 5.4-4.9 9.1-5 6.6-.2 11.3 3.7 12.4 10.2.2 1.3.3 2.6.3 4v18.8h-10.8v-1.9c0-5.6.1-11.2-.1-16.8-.1-4.7-4-7.1-7.8-5.1-1.9 1-3.1 2.6-3.1 4.9-.1 5.6-.1 11.2-.1 16.8.1.7.1 1.3.1 2.1zM35.2 71.4h-10.6v-32.2h10.6v32.2z"/></svg>