<?xml version="1.0" encoding="utf-8"?>
<!-- Generator: Adobe Illustrator 19.1.0, SVG Export Plug-In . SVG Version: 6.00 Build 0)  -->
<!DOCTYPE svg PUBLIC "-//W3C//DTD SVG 1.1//EN" "http://www.w3.org/Graphics/SVG/1.1/DTD/svg11.dtd">
<svg version="1.1" id="Layer_1" xmlns="http://www.w3.org/2000/svg" xmlns:xlink="http://www.w3.org/1999/xlink" x="0px" y="0px"
	 width="95px" height="100.6px" viewBox="0 0 95 100.6" style="enable-background:new 0 0 95 100.6;" xml:space="preserve">
<style type="text/css">
	.st0{fill:none;stroke:#FFFFFF;stroke-width:2;stroke-miterlimit:10;}
	.st1{fill:#FFFFFF;}
</style>
<circle class="st0" cx="47.7" cy="49.7" r="43.9"/>
<circle class="st1" cx="31.1" cy="28.7" r="5.7"/>
<g>
	<g>
		<path class="st1" d="M52.9,71.4c-3.7,0-7.1,0-10.7,0c0-10.7,0-21.4,0-32.3c3.3,0,6.5,0,9.8,0c0.3,0,0.8,0.6,0.9,1
			c0.1,0.9,0,1.9,0,3.3c2.5-3.4,5.4-4.9,9.1-5c6.6-0.2,11.3,3.7,12.4,10.2c0.2,1.3,0.3,2.6,0.3,4c0,5.7,0,11.3,0,17
			c0,0.6,0,1.1,0,1.8c-3.6,0-7.1,0-10.8,0c0-0.6,0-1.3,0-1.9c0-5.6,0.1-11.2-0.1-16.8c-0.1-4.7-4-7.1-7.8-5.1
			c-1.9,1-3.1,2.6-3.1,4.9c-0.1,5.6-0.1,11.2-0.1,16.8C52.9,70,52.9,70.6,52.9,71.4z"/>
	</g>
	<g>
		<path class="st1" d="M36.2,71.4c-3.6,0-7.1,0-10.6,0c0-10.8,0-21.4,0-32.2c3.5,0,7,0,10.6,0C36.2,49.9,36.2,60.6,36.2,71.4z"/>
	</g>
</g>
<g>
</g>
<g>
</g>
<g>
</g>
<g>
</g>
<g>
</g>
<g>
</g>
</svg>
