<svg xmlns="http://www.w3.org/2000/svg" width="95" height="100.6" viewBox="0 0 95 100.6"><style type="text/css">.st0{fill:none;stroke:#FFFFFF;stroke-miterlimit:10;} .st1{fill:#FFFFFF;}</style><circle class="st0" cx="47.7" cy="49.7" r="43.9"/><circle class="st0" cx="31.1" cy="28.7" r="5.7"/><path class="st1" d="M62.5 38.4c6.4 0 10.9 3.8 12 10.2.2 1.3.3 2.6.3 4v18.8h-10.8v-1.9c0-5.6.1-11.2-.1-16.8-.1-3.5-2.3-5.8-5.1-5.8-.9 0-1.8.2-2.7.7-1.9 1-3.1 2.6-3.1 4.9-.1 5.6-.1 11.2-.1 16.8v2.1h-10.7v-32.3h9.8c.3 0 .8.6.9 1 .1.9 0 1.9 0 3.3 2.5-3.4 5.4-4.9 9.1-5h.5m0-1h-.4c-3.2.1-5.8 1.2-8.1 3.3 0-.3 0-.5-.1-.8-.1-.7-.9-1.8-1.8-1.8h-9.7c-.6 0-1 .4-1 1v32.3c0 .6.4 1 1 1h10.7c.6 0 1-.4 1-1v-6.9c0-4 0-8 .1-12.1 0-1.7.9-3.1 2.6-4 .7-.4 1.5-.6 2.2-.6 2.3 0 4 2 4.1 4.8-.1 4.1-.1 8.1-.1 11.9v6.8999999999999995c0 .6.4 1 1 1h10.8c.6 0 1-.4 1-1v-18.7c0-1.4-.1-2.8-.3-4.1-1.2-6.9-6.2-11.2-13-11.2zM36.2 39.2v32.2h-10.6v-32.2h10.6m0-1h-10.6c-.6 0-1 .4-1 1v32.2c0 .6.4 1 1 1h10.6c.6 0 1-.4 1-1v-32.2c0-.5-.4-1-1-1z"/></svg>