<svg xmlns="http://www.w3.org/2000/svg" width="72.1" height="74.8" viewBox="0 0 72.1 74.8"><style type="text/css">.st0{fill:none;stroke:#AADAC9;stroke-width:2;stroke-miterlimit:10;} .st1{fill:#A9DAC8;}</style><circle class="st0" cx="35.7" cy="37.7" r="32.2"/><circle class="st1" cx="22.9" cy="22.3" r="4.2"/><path class="st1" d="M38.9 53.7h-7.9v-23.7h7.2c.2 0 .6.4.6.7.1.7 0 1.4 0 2.4 1.8-2.5 4-3.6 6.7-3.7 4.9-.1 8.3 2.7 9.1 7.5.2 1 .2 1.9.2 2.9v13.8h-7.9v-1.4c0-4.1 0-8.2-.1-12.4-.1-3.4-2.9-5.2-5.7-3.7-1.4.7-2.3 1.9-2.3 3.6v12.4c.1.6.1 1 .1 1.6zm-12.3 0h-7.8v-23.6h7.8v23.6z"/></svg>