<?xml version="1.0" encoding="utf-8"?>
<!-- Generator: Adobe Illustrator 19.1.0, SVG Export Plug-In . SVG Version: 6.00 Build 0)  -->
<!DOCTYPE svg PUBLIC "-//W3C//DTD SVG 1.1//EN" "http://www.w3.org/Graphics/SVG/1.1/DTD/svg11.dtd">
<svg version="1.1" id="Layer_1" xmlns="http://www.w3.org/2000/svg" xmlns:xlink="http://www.w3.org/1999/xlink" x="0px" y="0px"
	 width="95px" height="100.6px" viewBox="0 0 95 100.6" style="enable-background:new 0 0 95 100.6;" xml:space="preserve">
<style type="text/css">
	.st0{fill:none;stroke:#FFFFFF;stroke-miterlimit:10;}
	.st1{fill:#FFFFFF;}
</style>
<circle class="st0" cx="47.7" cy="49.7" r="43.9"/>
<circle class="st0" cx="31.1" cy="28.7" r="5.7"/>
<g>
	<g>
		<path class="st1" d="M62.5,38.4c6.4,0,10.9,3.8,12,10.2c0.2,1.3,0.3,2.6,0.3,4c0,5.7,0,11.3,0,17c0,0.6,0,1.1,0,1.8
			c-3.6,0-7.1,0-10.8,0c0-0.6,0-1.3,0-1.9c0-5.6,0.1-11.2-0.1-16.8c-0.1-3.5-2.3-5.8-5.1-5.8c-0.9,0-1.8,0.2-2.7,0.7
			c-1.9,1-3.1,2.6-3.1,4.9c-0.1,5.6-0.1,11.2-0.1,16.8c0,0.6,0,1.3,0,2.1c-3.7,0-7.1,0-10.7,0c0-10.7,0-21.4,0-32.3
			c1.4,0,2.9,0,4.3,0c1.8,0,3.7,0,5.5,0c0.3,0,0.8,0.6,0.9,1c0.1,0.9,0,1.9,0,3.3c2.5-3.4,5.4-4.9,9.1-5
			C62.2,38.4,62.3,38.4,62.5,38.4 M62.5,37.4c-0.1,0-0.3,0-0.4,0c-3.2,0.1-5.8,1.2-8.1,3.3c0-0.3,0-0.5-0.1-0.8
			c-0.1-0.7-0.9-1.8-1.8-1.8c-2,0-3.9,0-5.5,0l-2.1,0l-2.1,0c-0.6,0-1,0.4-1,1v32.3c0,0.6,0.4,1,1,1h10.7c0.6,0,1-0.4,1-1l0-0.8
			l0-1.3c0-1.6,0-3.2,0-4.8c0-4,0-8,0.1-12.1c0-1.7,0.9-3.1,2.6-4c0.7-0.4,1.5-0.6,2.2-0.6c2.3,0,4,2,4.1,4.8
			C63,56.7,63,60.7,63,64.5c0,1.7,0,3.4,0,5.1c0,0.4,0,0.8,0,1.2l0,0.6c0,0.6,0.4,1,1,1h10.8c0.6,0,1-0.4,1-1v-0.6v-1.2l0-4.5
			c0-4.1,0-8.3,0-12.4c0-1.4-0.1-2.8-0.3-4.1C74.3,41.7,69.3,37.4,62.5,37.4L62.5,37.4z"/>
	</g>
	<g>
		<path class="st1" d="M36.2,39.2c0,10.7,0,21.3,0,32.2c-3.6,0-7.1,0-10.6,0c0-10.8,0-21.4,0-32.2C29.1,39.2,32.6,39.2,36.2,39.2
			 M36.2,38.2H25.6c-0.6,0-1,0.4-1,1v32.2c0,0.6,0.4,1,1,1h10.6c0.6,0,1-0.4,1-1V39.2C37.2,38.7,36.8,38.2,36.2,38.2L36.2,38.2z"/>
	</g>
</g>
<g>
</g>
<g>
</g>
<g>
</g>
<g>
</g>
<g>
</g>
<g>
</g>
</svg>
