<?xml version="1.0" encoding="utf-8"?>
<!-- Generator: Adobe Illustrator 19.1.0, SVG Export Plug-In . SVG Version: 6.00 Build 0)  -->
<!DOCTYPE svg PUBLIC "-//W3C//DTD SVG 1.1//EN" "http://www.w3.org/Graphics/SVG/1.1/DTD/svg11.dtd">
<svg version="1.1" id="Layer_1" xmlns="http://www.w3.org/2000/svg" xmlns:xlink="http://www.w3.org/1999/xlink" x="0px" y="0px"
	 width="95px" height="100.6px" viewBox="-252 100.4 95 100.6" style="enable-background:new -252 100.4 95 100.6;"
	 xml:space="preserve">
<style type="text/css">
	.st0{fill:none;stroke:#FFFFFF;stroke-width:2;stroke-miterlimit:10;}
	.st1{fill:#FFFFFF;}
</style>
<circle class="st0" cx="-204.3" cy="150.1" r="43.9"/>
<path class="st1" d="M-224.7,166v-30.6l0.1-0.2c0.5-2.5,1.9-4.1,4.3-4.8l0.8-0.2h30.6l0.2,0.1c2.5,0.5,4.1,1.9,4.8,4.3l0.2,0.8V166
	l-0.1,0.2c-0.5,2.5-1.9,4.1-4.3,4.8l-0.8,0.2h-30.6l-0.2-0.1c-2.5-0.5-4.1-1.9-4.8-4.3C-224.5,166.6-224.6,166.3-224.7,166z
	 M-222.9,144v21c0,0.4,0,0.7,0.1,1.1c0.3,1.8,1.9,3.5,4.4,3.5h28.5c0.4,0,0.7,0,1.1-0.1c2.1-0.4,3.4-2.1,3.4-4.3v-21.1h-11
	c4.2,4.9,2.7,11.4-1.1,14.6s-9.4,3.2-13.2,0c-3.9-3.2-5.3-9.7-1.1-14.6C-215.6,144-219.2,144-222.9,144z M-212.7,142.2h2.5
	c0.2,0,0.4-0.1,0.6-0.2c3.6-2,7.1-2,10.7,0c0.2,0.1,0.5,0.2,0.7,0.2h12.7v-5.9c0-0.3,0-0.6-0.1-0.8c-0.4-2.1-2.1-3.5-4.4-3.5h-22.8
	C-212.7,135.4-212.7,138.8-212.7,142.2z M-204.2,142.2c-4.7,0-8.5,3.8-8.5,8.5s3.8,8.6,8.5,8.5c4.7,0,8.5-3.8,8.5-8.5
	S-199.5,142.2-204.2,142.2z M-217.8,132v10.1h3.4V132C-214.4,132-217.8,132-217.8,132z M-219.5,132.1h-0.2c-1.6,0.4-3.1,2-3.2,3.7
	c-0.1,2,0,4.1,0,6.1v0.3h3.4C-219.5,142.2-219.5,132.1-219.5,132.1z M-192.3,140.5h-2.4c-0.6,0-0.9-0.3-1-0.9v-5
	c0-0.6,0.3-0.9,0.9-0.9h5c0.6,0,0.9,0.3,0.9,1v4.9c0,0.6-0.3,1-1,1C-190.6,140.5-191.4,140.5-192.3,140.5z M-190.6,138.8v-3.4h-3.4
	v3.4H-190.6z M-204.2,156.3c-3.1,0-5.6-2.5-5.5-5.6c0-3.1,2.5-5.5,5.6-5.5c3.1,0,5.6,2.5,5.5,5.6
	C-198.6,153.8-201.1,156.3-204.2,156.3z M-200.3,150.7c0-2.1-1.8-3.8-3.8-3.8c-2.1,0-3.9,1.7-3.9,3.9c0,2.1,1.8,3.8,3.8,3.8
	C-202.1,154.6-200.3,152.8-200.3,150.7z"/>
</svg>
