<?xml version="1.0" encoding="utf-8"?>
<!-- Generator: Adobe Illustrator 19.1.0, SVG Export Plug-In . SVG Version: 6.00 Build 0)  -->
<!DOCTYPE svg PUBLIC "-//W3C//DTD SVG 1.1//EN" "http://www.w3.org/Graphics/SVG/1.1/DTD/svg11.dtd">
<svg version="1.1" id="Layer_1" xmlns="http://www.w3.org/2000/svg" xmlns:xlink="http://www.w3.org/1999/xlink" x="0px" y="0px"
	 width="95px" height="100.6px" viewBox="0 0 95 100.6" style="enable-background:new 0 0 95 100.6;" xml:space="preserve">
<style type="text/css">
	.st0{fill:none;stroke:#FFFFFF;stroke-miterlimit:10;}
</style>
<circle class="st0" cx="47.7" cy="49.7" r="43.9"/>
<g>
	<path class="st0" d="M27.3,65.6c0-10.2,0-20.4,0-30.6c0-0.1,0.1-0.1,0.1-0.2c0.5-2.5,1.9-4.1,4.3-4.8c0.3-0.1,0.5-0.1,0.8-0.2
		c10.2,0,20.4,0,30.6,0c0.1,0,0.1,0.1,0.2,0.1c2.5,0.5,4.1,1.9,4.8,4.3c0.1,0.3,0.1,0.5,0.2,0.8c0,10.2,0,20.4,0,30.6
		c0,0.1-0.1,0.1-0.1,0.2c-0.5,2.5-1.9,4.1-4.3,4.8c-0.3,0.1-0.5,0.1-0.8,0.2c-10.2,0-20.4,0-30.6,0c-0.1,0-0.1-0.1-0.2-0.1
		c-2.5-0.5-4.1-1.9-4.8-4.3C27.5,66.2,27.4,65.9,27.3,65.6z M29.1,43.6c0,0.2,0,0.3,0,0.4c0,6.9,0,13.7,0,20.6c0,0.4,0,0.7,0.1,1.1
		c0.3,1.8,1.9,3.5,4.4,3.5c9.5,0,19,0,28.5,0c0.4,0,0.7,0,1.1-0.1c2.1-0.4,3.4-2.1,3.4-4.3c0-6.9,0-13.8,0-20.7c0-0.1,0-0.3,0-0.4
		c-3.7,0-7.4,0-11,0c4.2,4.9,2.7,11.4-1.1,14.6c-3.8,3.2-9.4,3.2-13.2,0c-3.9-3.2-5.3-9.7-1.1-14.6C36.4,43.6,32.8,43.6,29.1,43.6z
		 M39.3,41.8c0.9,0,1.7,0,2.5,0c0.2,0,0.4-0.1,0.6-0.2c3.6-2,7.1-2,10.7,0c0.2,0.1,0.5,0.2,0.7,0.2c4.1,0,8.2,0,12.3,0
		c0.1,0,0.3,0,0.4,0c0-0.1,0-0.2,0-0.3c0-1.9,0-3.8,0-5.6c0-0.3,0-0.6-0.1-0.8c-0.4-2.1-2.1-3.5-4.4-3.5c-7.5,0-14.9,0-22.4,0
		c-0.1,0-0.3,0-0.4,0C39.3,35,39.3,38.4,39.3,41.8z M47.8,41.8c-4.7,0-8.5,3.8-8.5,8.5c0,4.7,3.8,8.6,8.5,8.5c4.7,0,8.5-3.8,8.5-8.5
		C56.3,45.6,52.5,41.8,47.8,41.8z M34.2,31.6c0,3.4,0,6.8,0,10.1c1.1,0,2.3,0,3.4,0c0-3.4,0-6.8,0-10.1
		C36.4,31.6,35.3,31.6,34.2,31.6z M32.5,31.7c-0.1,0-0.1,0-0.2,0c-1.6,0.4-3.1,2-3.2,3.7c-0.1,2,0,4.1,0,6.1c0,0.1,0,0.2,0,0.3
		c1.1,0,2.2,0,3.4,0C32.5,38.4,32.5,35.1,32.5,31.7z"/>
	<path class="st0" d="M59.7,40.1c-0.8,0-1.6,0-2.4,0c-0.6,0-0.9-0.3-1-0.9c0-1.7,0-3.3,0-5c0-0.6,0.3-0.9,0.9-0.9c1.7,0,3.3,0,5,0
		c0.6,0,0.9,0.3,0.9,1c0,1.6,0,3.3,0,4.9c0,0.6-0.3,1-1,1C61.4,40.1,60.6,40.1,59.7,40.1z M61.4,38.4c0-1.1,0-2.2,0-3.4
		c-1.1,0-2.2,0-3.4,0c0,1.1,0,2.2,0,3.4C59.2,38.4,60.3,38.4,61.4,38.4z"/>
	<path class="st0" d="M47.8,55.9c-3.1,0-5.6-2.5-5.5-5.6c0-3.1,2.5-5.5,5.6-5.5c3.1,0,5.6,2.5,5.5,5.6
		C53.4,53.4,50.9,55.9,47.8,55.9z M51.7,50.3c0-2.1-1.8-3.8-3.8-3.8c-2.1,0-3.9,1.7-3.9,3.9c0,2.1,1.8,3.8,3.8,3.8
		C49.9,54.2,51.7,52.4,51.7,50.3z"/>
</g>
<g>
</g>
<g>
</g>
<g>
</g>
<g>
</g>
<g>
</g>
<g>
</g>
</svg>
