<svg xmlns="http://www.w3.org/2000/svg" width="95" height="100.6" viewBox="0 0 95 100.6"><style type="text/css">.st0{fill:none;stroke:#FFFFFF;stroke-miterlimit:10;}</style><circle class="st0" cx="47.7" cy="49.7" r="43.9"/><path class="st0" d="M27.3 65.6v-30.6l.1-.2c.5-2.5 1.9-4.1 4.3-4.8l.8-.2h30.6l.2.1c2.5.5 4.1 1.9 4.8 4.3l.2.8v30.6l-.1.2c-.5 2.5-1.9 4.1-4.3 4.8l-.8.2h-30.6l-.2-.1c-2.5-.5-4.1-1.9-4.8-4.3 0-.2-.1-.5-.2-.8zm1.8-22v21c0 .4 0 .7.1 1.1.3 1.8 1.9 3.5 4.4 3.5h28.5c.4 0 .7 0 1.1-.1 2.1-.4 3.4-2.1 3.4-4.3v-21.099999999999998h-11c4.2 4.9 2.7 11.4-1.1 14.6-3.8 3.2-9.4 3.2-13.2 0-3.9-3.2-5.3-9.7-1.1-14.6-3.8-.1-7.4-.1-11.1-.1zm10.2-1.8h2.5c.2 0 .4-.1.6-.2 3.6-2 7.1-2 10.7 0 .2.1.5.2.7.2h12.700000000000001v-5.8999999999999995c0-.3 0-.6-.1-.8-.4-2.1-2.1-3.5-4.4-3.5h-22.799999999999997c.1 3.4.1 6.8.1 10.2zm8.5 0c-4.7 0-8.5 3.8-8.5 8.5s3.8 8.6 8.5 8.5c4.7 0 8.5-3.8 8.5-8.5s-3.8-8.5-8.5-8.5zm-13.6-10.2v10.1h3.4v-10.1h-3.4zm-1.7.1h-.2c-1.6.4-3.1 2-3.2 3.7-.1 2 0 4.1 0 6.1v.3h3.4v-10.1zM59.7 40.1h-2.4c-.6 0-.9-.3-1-.9v-5c0-.6.3-.9.9-.9h5c.6 0 .9.3.9 1v4.9c0 .6-.3 1-1 1-.7-.1-1.5-.1-2.4-.1zm1.7-1.7v-3.4h-3.4v3.4h3.4zM47.8 55.9c-3.1 0-5.6-2.5-5.5-5.6 0-3.1 2.5-5.5 5.6-5.5 3.1 0 5.6 2.5 5.5 5.6 0 3-2.5 5.5-5.6 5.5zm3.9-5.6c0-2.1-1.8-3.8-3.8-3.8-2.1 0-3.9 1.7-3.9 3.9 0 2.1 1.8 3.8 3.8 3.8 2.1 0 3.9-1.8 3.9-3.9z"/></svg>