<?xml version="1.0" encoding="utf-8"?>
<!-- Generator: Adobe Illustrator 19.1.0, SVG Export Plug-In . SVG Version: 6.00 Build 0)  -->
<!DOCTYPE svg PUBLIC "-//W3C//DTD SVG 1.1//EN" "http://www.w3.org/Graphics/SVG/1.1/DTD/svg11.dtd">
<svg version="1.1" id="Layer_1" xmlns="http://www.w3.org/2000/svg" xmlns:xlink="http://www.w3.org/1999/xlink" x="0px" y="0px"
	 width="96.7px" height="48.8px" viewBox="0 0 96.7 48.8" style="enable-background:new 0 0 96.7 48.8;" xml:space="preserve">
<path d="M26.2,12.7l-2-1.1c4.1-2.2,6.1-4.1,6.1-5.8c0-1.1-1.3-1.6-3.9-1.6c-2.4,0-4.7,0.6-7.1,1.8C16.5,7.5,15,9.3,15,11.4
	c0,1.1,0.9,2.4,2.7,3.8c1.7,1.3,3.4,2.6,5,3.9c1.8,1.7,2.7,3.5,2.7,5.3c0,2.7-1.5,4.7-4.6,5.8c-2.1,0.8-4.8,1.2-8.1,1.2
	c-2.7,0-6.1-0.7-10.2-2l1.4-1.6c3.8,1.7,7.3,2.6,10.7,2.6c2.3,0,4.2-0.4,5.9-1.2c2.2-1,3.2-2.5,3.2-4.5c0-1.4-0.9-2.8-2.8-4.3
	c-1.7-1.3-3.4-2.6-5.1-3.9c-1.9-1.6-2.8-3.2-2.8-4.8c0-3,1.8-5.2,5.4-6.8c2.7-1.2,5.8-1.8,9.3-1.8c1,0,1.8,0.2,2.6,0.7
	c0.9,0.5,1.4,1.3,1.4,2.2c0,1.3-0.7,2.5-2,3.8C29.5,10.2,28.3,11.2,26.2,12.7z"/>
<path d="M31.7,29.4c-0.9,0-1.4-0.5-1.4-1.4c0-0.5,0.1-1,0.3-1.7c-1.6,2.1-2.9,3.1-4,3.1c-1.2,0-1.8-0.6-1.8-1.9c0-1.4,0.7-2.8,2-4.1
	c1.3-1.3,2.7-2,4.1-2c0.3,0,0.8,0.1,1.5,0.3l-0.7,1c-0.4-0.2-0.9-0.3-1.3-0.3c-1,0-1.9,0.6-2.7,1.8c-0.8,1.2-1.2,2.3-1.2,3.3
	c0,0.5,0.3,0.7,0.9,0.7c0.7,0,1.7-0.9,3-2.8c0,0,0.9-1.3,2.4-3.8h1.2c-0.4,1-0.7,2-1.1,3c-0.5,1.4-0.8,2.3-0.8,2.9
	c0,0.2,0,0.4,0.1,0.7h0.4l2-1.6h0.6c-0.1,0.7-0.6,1.3-1.3,1.9C33.1,29.1,32.3,29.4,31.7,29.4z"/>
<path d="M45,29.5l-0.7-0.2l-0.4-0.7c0-0.8,0.5-2.8,1.4-6l-0.2-0.2c-1.3,0.6-3,2.9-5,6.8h-1.8c1.4-3.7,2.2-5.8,2.2-6.4l-0.3-0.4
	c-0.6,0.1-1.6,1.1-2.8,3c-0.8,1.3-1.5,2.6-2.3,3.9h-1.4l1.7-7c0.1-0.5,0.6-0.8,1.6-0.7h0.3c-0.2,1.3-0.6,2.7-1,4.3
	c1.8-2.9,3.2-4.4,4.4-4.4c0.8,0,1.2,0.5,1.2,1.5c0,0.1-0.2,1-0.6,2.5c1.6-2.6,2.9-4,4-4c0.3,0,0.7,0.1,1.1,0.4
	c0.4,0.3,0.6,0.6,0.6,0.9c0,0.5-0.2,1.3-0.6,2.3c-0.4,1-0.6,1.7-0.6,2.2c0,0.2,0,0.5,0.1,1c0.4,0,0.9-0.3,1.5-0.8
	c0.4-0.4,0.8-0.8,1.2-1.3l0.5,0.6c-0.6,0.6-1.2,1.1-1.9,1.7C46.4,29.2,45.6,29.5,45,29.5z"/>
<path d="M55.3,29.4c-0.9,0-1.4-0.5-1.4-1.4c0-0.5,0.1-1,0.3-1.7c-1.6,2.1-2.9,3.1-4,3.1c-1.2,0-1.8-0.6-1.8-1.9c0-1.4,0.7-2.8,2-4.1
	c1.3-1.3,2.7-2,4.1-2c0.3,0,0.8,0.1,1.5,0.3l-0.7,1c-0.4-0.2-0.9-0.3-1.3-0.3c-1,0-1.9,0.6-2.7,1.8c-0.8,1.2-1.2,2.3-1.2,3.3
	c0,0.5,0.3,0.7,0.9,0.7c0.7,0,1.7-0.9,3-2.8c0,0,0.9-1.3,2.4-3.8h1.2c-0.4,1-0.7,2-1.1,3c-0.5,1.4-0.8,2.3-0.8,2.9
	c0,0.2,0,0.4,0.1,0.7h0.4l2-1.6h0.6c-0.1,0.7-0.6,1.3-1.3,1.9C56.7,29.1,56,29.4,55.3,29.4z"/>
<path d="M64.1,29.5c-1,0-1.4-0.5-1.4-1.5c0-0.6,0.3-1.5,0.9-2.7c0.6-1.1,0.9-2,0.9-2.6c0-0.2-0.1-0.4-0.3-0.5c-1,0.4-2,1.4-3.2,3.2
	c-0.8,1.3-1.5,2.6-2.3,3.8l-1.3-0.1l2.1-7.5l1.8-0.4L60,25.8c0.6-0.9,1.2-1.8,1.8-2.7c0.9-1.2,1.8-1.7,2.6-1.7c0.3,0,0.6,0.2,1,0.5
	c0.3,0.3,0.5,0.6,0.5,0.9c0,0.7-0.3,1.6-0.8,2.8c-0.6,1.3-0.9,2.2-1,2.7l0.5,0c0.4,0,1.3-0.7,2.5-2.2l0.1,0.8
	C66.3,28.6,65.2,29.5,64.1,29.5z"/>
<path d="M72.9,20.5h-2.4l-2.1,7.3l0.1,0.4c0.1,0,0.3,0.1,0.3,0.1c0.4,0,0.9-0.3,1.4-0.8c0.4-0.4,0.8-0.9,1.2-1.3l0.3,0.7
	c-1.3,1.8-2.5,2.6-3.7,2.6c-0.4,0-0.7-0.2-1-0.5c-0.3-0.3-0.4-0.6-0.4-1c0-0.1,0.7-2.6,2.1-7.5h-0.9l0.2-1h1l1.5-5.4l1.7-0.4
	l-1.6,5.8H73L72.9,20.5z"/>
<path d="M77,29.5c-0.1,0-0.4,0-0.8-0.1c-0.3-0.2-0.4-0.6-0.5-1c0.4-1.3,1-3.1,1.8-5.7l-0.3-0.5c-0.8,0-1.8,1-3.1,3
	c-1,1.5-1.7,2.9-2.2,4.1h-1.4c1.7-7.4,3.8-14.8,6.3-22.2l1.9-0.4l-5.4,18.2c1.6-2.4,3-3.7,4.1-3.7c0.9,0,1.4,0.7,1.4,2
	c0,0.7-0.2,1.5-0.6,2.5c-0.3,0.8-0.7,1.6-1,2.4l0.2,0.2c0.8,0,1.5-0.7,2.2-1.9l1-0.4c-0.2,0.8-0.6,1.6-1.3,2.3
	C78.6,29.1,77.8,29.5,77,29.5z"/>
<path d="M86.4,29.4c-0.9,0-1.4-0.5-1.4-1.4c0-0.5,0.1-1,0.3-1.7c-1.6,2.1-2.9,3.1-4,3.1c-1.2,0-1.8-0.6-1.8-1.9c0-1.4,0.7-2.8,2-4.1
	c1.3-1.3,2.7-2,4.1-2c0.3,0,0.8,0.1,1.5,0.3l-0.7,1c-0.4-0.2-0.9-0.3-1.3-0.3c-1,0-1.9,0.6-2.7,1.8c-0.8,1.2-1.2,2.3-1.2,3.3
	c0,0.5,0.3,0.7,0.9,0.7c0.7,0,1.7-0.9,3-2.8c0,0,0.9-1.3,2.4-3.8h1.2c-0.4,1-0.7,2-1.1,3c-0.5,1.4-0.8,2.3-0.8,2.9
	c0,0.2,0,0.4,0.1,0.7h0.4l2-1.6h0.6c-0.1,0.7-0.6,1.3-1.3,1.9C87.8,29.1,87,29.4,86.4,29.4z"/>
<path d="M34.6,30v11.3H34V30.7l-4.3,5.7l-4.3-5.7v10.6h-0.6V30h0.9l4,5.3l4-5.3H34.6z"/>
<path d="M42.1,39.6l0.7,0.2c-0.1,0.2-0.3,0.3-0.4,0.5c-0.7,0.8-1.7,1.1-2.7,1.1c-1.1,0-2-0.4-2.7-1.1c-0.8-0.8-1.1-1.7-1.1-2.7
	c0-1.1,0.4-2,1.1-2.7c0.8-0.8,1.7-1.1,2.7-1.1c1.1,0,2,0.4,2.7,1.1c0.2,0.2,0.3,0.3,0.4,0.5l-0.7,0.2c-0.1-0.1-0.1-0.2-0.2-0.3
	c-0.6-0.6-1.4-0.9-2.2-0.9c-0.9,0-1.6,0.3-2.2,0.9c-0.6,0.6-0.9,1.4-0.9,2.3c0,0.9,0.3,1.6,0.9,2.3c0.6,0.6,1.4,0.9,2.2,0.9
	c0.9,0,1.6-0.3,2.2-0.9C41.9,39.8,42,39.7,42.1,39.6z"/>
<path d="M53.2,39.9c-1.1,1-2.3,1.5-3.8,1.5c-1.6,0-2.9-0.6-4-1.7s-1.7-2.5-1.7-4.1c0-1.6,0.6-2.9,1.7-4.1c1.1-1.1,2.5-1.7,4-1.7
	c1.5,0,2.8,0.5,3.8,1.5l-0.5,0.4c-1-0.9-2.1-1.3-3.4-1.3c-1.4,0-2.6,0.5-3.6,1.5c-1,1-1.5,2.2-1.5,3.6c0,1.4,0.5,2.6,1.5,3.6
	c1,1,2.2,1.5,3.6,1.5c1.2,0,2.3-0.4,3.2-1.1v-3.4h0.6V39.9z"/>
<path d="M57.1,35c-0.4,0.1-0.9,0.4-1.3,0.9c-0.4,0.5-0.6,1-0.6,1.5v4h-0.6v-6.9h0.6v1.5c0.3-0.7,0.8-1.2,1.6-1.6L57.1,35z"/>
<path d="M58.2,37.3c0,0.1,0,0.2,0,0.4c0,0.9,0.3,1.6,0.9,2.3c0.6,0.6,1.4,0.9,2.2,0.9c0.9,0,1.6-0.3,2.2-0.9
	c0.1-0.1,0.2-0.2,0.3-0.3l0.7,0.2c-0.1,0.1-0.2,0.3-0.5,0.6c-0.7,0.8-1.7,1.1-2.7,1.1c-1.1,0-2-0.4-2.7-1.1
	c-0.8-0.8-1.1-1.7-1.1-2.7c0-1.1,0.4-2,1.1-2.7c0.8-0.8,1.7-1.1,2.7-1.1c1.1,0,2,0.4,2.7,1.1c0.7,0.7,1,1.5,1,2.4H58.2z M58.3,36.6
	h6c-0.1-0.5-0.4-0.9-0.8-1.3c-0.6-0.6-1.4-0.9-2.2-0.9c-0.9,0-1.6,0.3-2.2,0.9C58.7,35.8,58.4,36.2,58.3,36.6z"/>
<path d="M72.7,39.9c-0.1,0.1-0.2,0.3-0.4,0.4c-0.7,0.8-1.7,1.1-2.7,1.1c-1.1,0-2-0.4-2.7-1.1c-0.8-0.8-1.1-1.7-1.1-2.7
	c0-1.1,0.4-2,1.1-2.7c0.8-0.8,1.7-1.1,2.7-1.1c1.1,0,2,0.4,2.7,1.1c0.1,0.1,0.3,0.3,0.4,0.5v-1h0.6v5.4c0,1-0.4,1.9-1.1,2.7
	c-0.7,0.8-1.7,1.1-2.7,1.1c-1.1,0-2-0.4-2.7-1.1c-0.2-0.2-0.3-0.3-0.4-0.5l0.7-0.2c0.1,0.1,0.1,0.2,0.2,0.2c0.6,0.6,1.4,0.9,2.2,0.9
	c0.9,0,1.6-0.3,2.2-0.9C72.3,41.4,72.6,40.7,72.7,39.9z M72.7,37c-0.1-0.6-0.4-1.1-0.9-1.6c-0.6-0.6-1.4-0.9-2.2-0.9
	s-1.6,0.3-2.2,0.9c-0.6,0.6-0.9,1.4-0.9,2.3c0,0.9,0.3,1.6,0.9,2.3c0.6,0.6,1.4,0.9,2.2,0.9s1.6-0.3,2.2-0.9c0.4-0.5,0.7-1,0.9-1.6
	V37z"/>
<path d="M78.3,33.8c1.1,0,2,0.4,2.7,1.1c0.7,0.8,1.1,1.7,1.1,2.7c0,1.1-0.4,2-1.1,2.7c-0.7,0.8-1.6,1.1-2.7,1.1
	c-1.1,0-2-0.4-2.7-1.1c-0.8-0.8-1.1-1.7-1.1-2.7c0-1.1,0.4-2,1.1-2.7C76.3,34.2,77.2,33.8,78.3,33.8z M76,35.4
	c-0.6,0.6-0.9,1.4-0.9,2.3c0,0.9,0.3,1.6,0.9,2.3c0.6,0.6,1.4,0.9,2.2,0.9c0.9,0,1.6-0.3,2.2-0.9c0.6-0.6,0.9-1.4,0.9-2.3
	c0-0.9-0.3-1.6-0.9-2.3c-0.6-0.6-1.4-0.9-2.2-0.9C77.4,34.4,76.6,34.8,76,35.4z"/>
<path d="M85.9,35c-0.4,0.1-0.9,0.4-1.3,0.9c-0.4,0.5-0.6,1-0.6,1.5v4h-0.6v-6.9h0.6v1.5c0.3-0.7,0.8-1.2,1.6-1.6L85.9,35z"/>
<g>
</g>
<g>
</g>
<g>
</g>
<g>
</g>
<g>
</g>
<g>
</g>
</svg>
